<svg width="500" height="179" viewBox="0 0 500 179" fill="none" xmlns="http://www.w3.org/2000/svg">
<g clip-path="url(#clip0_701_2730)">
<path d="M46.9108 32.6406H57.2082L78.9474 87.3936V89.4995H85.8124V33.6936L86.9565 32.6406H121.281L129.291 35.7994L133.867 41.0642L136.156 51.5936L133.867 58.9642L128.146 64.2289L122.426 66.3347L137.3 87.3936V89.4995H157.895V40.0112H139.588V32.6406H185.355L186.499 38.9583L185.355 40.0112H167.048V90.5524H162.471V96.87H144.165V147.411H133.867V96.87H115.561V89.4995H125.858L110.984 68.4406V66.3347H96.1098L97.254 89.4995L105.263 92.6583L110.984 98.9759L112.128 102.135V110.558L108.696 117.929L101.831 122.141H98.3982L114.416 145.305V147.411H102.975L89.2449 127.405L86.9565 124.247L72.0824 123.194V147.411H62.9291V89.4995H68.6499L62.9291 74.7583L40.0458 73.7053L36.6133 84.2347L34.3249 90.5524L50.3433 131.617L56.0641 145.305V147.411H45.7666L40.0458 133.723V130.564H16.0183L14.8741 136.882L10.2975 147.411H0L3.43249 136.882L24.0275 87.3936L43.4783 40.0112L46.9108 32.6406Z" fill="white"/>
<path d="M289.472 32.6406H298.625L303.202 42.1171L321.509 88.4465V90.5524L315.788 91.6053L324.941 104.241L342.104 127.405L345.536 131.617V89.4995H354.689V147.411H345.536L336.383 135.829L315.788 107.399L314.644 106.347L313.499 147.411H304.346V89.4995H311.211L305.49 75.8112V73.7053L282.607 74.7583L276.886 88.4465L279.174 97.923L297.481 144.252V147.411H288.328L282.607 134.776L281.463 131.617L258.579 130.564L255.147 141.094L251.714 147.411H241.417L254.003 116.876L271.165 74.7583L288.328 33.6936L289.472 32.6406Z" fill="white"/>
<path d="M465.677 31.5869H482.839L491.993 35.7987L497.713 42.1163L498.858 49.4869L489.704 50.5399L486.272 43.1693L482.839 40.0104L471.398 38.9575L464.533 41.0634L462.244 43.1693V51.5928L473.686 54.7516L489.704 58.9634L496.569 63.1751L500.002 68.4398V78.9693L495.425 86.3398L488.56 90.5516L480.551 92.6575H470.253L463.388 91.6045L470.253 98.9751L471.398 106.346L462.244 107.399L458.812 100.028L455.379 96.8693L450.803 95.8163H442.793L434.784 97.9222L433.64 104.24L435.928 108.452L450.803 112.663L462.244 115.822L469.109 120.034L472.542 126.352V135.828L467.965 143.199L461.1 147.41L451.947 149.516H442.793L431.352 146.357L423.343 140.04L419.91 129.51V128.457L430.208 127.405L433.64 136.881L441.649 141.093H453.091L458.812 138.987L461.1 135.828V127.405L456.523 124.246L434.784 118.981L427.919 114.769L424.487 111.61L423.343 108.452V101.081L426.775 94.7634L431.352 90.5516L437.073 88.4457L455.379 87.3928L449.658 81.0751L448.514 71.5987L457.668 70.5457L461.1 81.0751L465.677 83.181L469.109 84.234H480.551L487.416 81.0751L488.56 78.9693V70.5457L483.983 67.3869L462.244 62.1222L455.379 57.9104L450.803 51.5928V44.2222L455.379 36.8516L462.244 32.6399L465.677 31.5869Z" fill="white"/>
<path d="M391.303 32.6406H439.358V73.7053L435.926 83.1818L430.205 88.4465L424.484 91.6053L418.763 92.6583H409.61L400.457 89.4995L394.736 85.2877L391.303 80.023L390.159 68.4406V33.6936L391.303 32.6406Z" fill="white"/>
<path d="M328.377 32.6406H337.53L345.539 43.17L368.423 74.7583L369.567 32.6406H378.72V90.5524H368.423L358.125 75.8112L337.53 47.3818V90.5524H328.377V32.6406Z" fill="white"/>
<path d="M384.438 89.501H394.735L405.033 114.772L417.619 146.36V147.413H407.321L402.745 136.883L400.456 131.619L377.573 130.566L374.141 141.095L371.852 147.413H361.555L362.699 142.148L384.438 89.501Z" fill="white"/>
<path d="M249.426 32.6406H258.579V83.1818L254.002 89.4995L244.849 92.6583H236.84L235.696 136.882L232.263 144.252L228.831 147.411L221.966 149.517H212.812L209.38 148.464V138.988L219.677 140.041L224.254 138.988L225.398 89.4995H232.263V82.1289L243.705 83.1818L248.281 78.97L249.426 32.6406Z" fill="white"/>
<path d="M247.141 0H254.006L250.573 10.5294L233.411 51.5941L210.527 107.4L188.788 160.047L180.779 179H173.914L177.347 168.471L202.518 107.4L227.69 46.3294L245.996 2.10588L247.141 0Z" fill="white"/>
<path d="M168.194 89.501H177.348V147.413H168.194V89.501Z" fill="white"/>
<path d="M192.217 32.6406H201.37V90.5524H192.217V32.6406Z" fill="white"/>
</g>
<defs>
<clipPath id="clip0_701_2730">
<rect width="500" height="179" fill="white"/>
</clipPath>
</defs>
</svg>
