<svg width="468" height="74" viewBox="0 0 468 74" fill="none" xmlns="http://www.w3.org/2000/svg">
<g clip-path="url(#clip0_721_9028)">
<path d="M431.545 4.67105C432.566 6.39489 433 8.16044 433.321 10.0928L428.19 10.4125C428.134 9.66184 428.022 8.91114 427.812 8.16044C427.057 5.47736 424.624 2.36333 418.36 2.36333C415.927 2.36333 412.627 2.9055 410.963 4.89348C410.152 5.81101 409.663 7.08999 409.663 8.32726C409.663 8.86943 409.774 10.0511 410.585 11.1215C412.04 13.1095 415.018 13.6934 417.227 14.2356L421.436 15.2504C422.415 15.459 423.435 15.737 424.4 16.0011C425.589 16.2653 430.231 17.294 432.552 21.1587C433.098 22.0763 433.95 23.7306 433.95 26.4276C433.95 27.929 433.741 31.3211 430.762 34.2127C428.651 36.2562 425.197 38.2998 418.723 38.2998C417.479 38.2998 412.291 38.2442 408.306 35.6724C407.118 34.9217 406.041 33.9068 405.23 32.8225C402.965 29.8197 402.685 26.372 402.587 25.2042L408.041 24.5091C408.097 25.6352 408.208 28.8048 410.627 31.335C411.984 32.7252 414.515 34.3378 419.003 34.3378C419.548 34.3378 421.003 34.3378 422.513 33.9068C424.135 33.4759 428.511 31.9744 428.511 26.7612C428.511 24.2311 427.435 23.1606 426.568 22.4655C425.058 21.2839 423.058 20.8529 421.268 20.4775L417.968 19.7825C415.214 19.1986 412.137 18.5452 409.593 17.155C405.006 14.6804 404.405 11.2467 404.405 8.99455C404.405 5.99173 405.761 3.46158 408.027 1.58482C408.824 0.93143 409.649 0.43096 410.488 0.0278039H396.421V23.6611C396.421 24.0364 396.477 26.2886 396.099 28.068C395.778 29.7918 394.589 33.4342 390.534 36.0199C388.968 36.993 386.158 38.3276 381.683 38.3276C379.684 38.3276 377.419 38.0635 375.475 37.3128C372.021 36.0199 369.211 33.1839 368.078 29.6389C367.533 27.8178 367.533 26.4693 367.533 22.9243V0H359.213V37.3267H354.627L333.723 6.50611L334.212 37.3267H329.402V0H310.875L324.536 37.3267H319.908L340.323 67.3966L340.113 37.007H344.699V74.0139H349.747L363.925 37.007H369.225L382.774 74.0139H392.799C392.338 73.7915 391.863 73.5412 391.429 73.2493C390.241 72.4986 389.164 71.4837 388.353 70.3994C386.088 67.3966 385.808 63.9628 385.71 62.7811L391.163 62.086C391.219 63.2121 391.331 66.3817 393.75 68.898C395.093 70.2882 397.637 71.9008 402.126 71.9008C402.671 71.9008 404.125 71.9008 405.636 71.4698C407.258 71.0389 411.634 69.5375 411.634 64.3243C411.634 61.7941 410.557 60.7237 409.691 60.0286C408.18 58.8469 406.181 58.4159 404.391 58.0406L401.091 57.3455C398.337 56.7477 395.26 56.1082 392.716 54.718C388.129 52.2435 387.528 48.8097 387.528 46.5576C387.528 43.5548 388.884 41.0246 391.15 39.1478C395.037 35.9226 399.791 36.0338 401.357 36.0338C405.034 36.0338 408.6 36.6316 411.564 38.8837C413.354 40.2183 414.207 41.5112 414.64 42.2619C415.661 43.9857 416.095 45.7513 416.416 47.6836L411.285 48.0034C411.229 47.2527 411.117 46.502 410.907 45.7513C410.152 43.0682 407.719 39.9542 401.455 39.9542C399.022 39.9542 395.736 40.4963 394.058 42.4843C393.247 43.4018 392.758 44.6808 392.758 45.9181C392.758 46.4603 392.869 47.6419 393.68 48.7124C395.135 50.7004 398.113 51.2842 400.322 51.8264L404.531 52.8413C405.51 53.0498 406.53 53.3278 407.495 53.592C408.684 53.8561 413.326 54.8848 415.647 58.7496C416.192 59.6671 417.045 61.3214 417.045 64.0184C417.045 65.5198 416.836 68.898 413.857 71.8035C413.06 72.582 412.068 73.3466 410.781 74.0139H439.697L467.998 0H426.344C427.085 0.36145 427.798 0.778508 428.469 1.29288C430.259 2.62747 431.112 3.92035 431.545 4.67105Z" fill="#458F77"/>
<path d="M334.617 0L354.85 29.8057L354.64 0H334.617Z" fill="#E6007E"/>
<path d="M290.98 36.993L305.158 0H286.1V27.2756C286.1 30.2784 286.1 32.5861 284.044 34.9495C281.178 38.272 277.137 38.272 275.725 38.272C274.69 38.272 273.529 38.2303 271.684 37.9384V64.8525C271.684 67.8553 271.684 70.1631 269.628 72.5264C269.111 73.1242 268.565 73.5829 267.992 73.9861H276.731L290.91 36.9791H290.966L290.98 36.993Z" fill="#283583"/>
<path d="M280.065 31.3072C280.932 30.0143 280.932 28.3043 280.932 25.0791V0H274.486L246.227 74H256.154V69.8016L256.797 70.1214C257.986 70.7052 259.384 70.8721 260.629 70.8721C261.006 70.8721 261.496 70.9277 262.307 70.7608C263.663 70.5523 264.851 70.0657 265.662 68.8841C266.529 67.5912 266.529 65.8813 266.529 62.656V36.993H270.57V32.2108L271.214 32.5305C272.402 33.1283 273.8 33.2812 275.045 33.2812C275.422 33.2812 275.912 33.3368 276.723 33.17C278.079 32.9615 279.268 32.4749 280.079 31.2933" fill="#458F77"/>
<path d="M243.007 74L271.266 0H250.935V37.3267H245.804V0H241.441V3.80913H230.045V37.3267H226.927V41.4H215.531V74H231.248V36.993H236.379V74H243.007Z" fill="#E7AD00"/>
<path d="M212.182 36.993H224.976V3.80913H213.525V0H203.066C205.666 0.695097 207.218 1.89066 208.337 3.22525C209.358 4.46252 210.658 6.71463 210.658 10.4682C210.658 12.0252 210.448 17.1828 205.582 19.6573C204.66 20.1439 203.751 20.5193 201.695 20.8946L212.182 37.007V36.993Z" fill="#283583"/>
<path d="M206.121 36.9938L195.9 21.2012H186.07V37.1189C190.279 37.5777 192.432 39.0791 193.873 40.8029C194.893 42.0402 196.194 44.2923 196.194 48.0458C196.194 49.6028 195.984 54.7604 191.118 57.2211C190.195 57.7076 189.286 58.083 187.231 58.4584L197.34 73.9868H210.456V41.3868H199.004V36.9799H206.121V36.9938Z" fill="#CD1719"/>
<path d="M191.299 73.9995L181.455 58.8047H171.625V73.9995H191.299Z" fill="#458F77"/>
<path d="M180.867 36.993C180.951 36.993 181.035 36.993 181.105 36.993V0H162.578L176.127 36.993H180.867Z" fill="#DA98C3"/>
<path d="M137.812 63.3086L133.883 73.9992H156.185L152.34 63.3086H137.812Z" fill="#283583"/>
<path d="M148.023 37.1322L161.517 74.0002H166.662V36.9932H170.787L166.746 25.7188H152.218L148.023 37.1322Z" fill="#DC8C3D"/>
<path d="M286.068 63.3086L282.125 73.9992H304.427L300.596 63.3086H286.068Z" fill="#DA98C3"/>
<path d="M296.289 37.2156L309.768 74.0002H314.9V36.9932H319.095L315.054 25.7188H300.526L296.289 37.2156Z" fill="#CD1719"/>
<path d="M339.515 73.999L319.227 44.082L319.702 73.999H339.515Z" fill="#DC8C3D"/>
<path d="M359.092 63.3086L355.148 73.9992H377.451L373.62 63.3086H359.092Z" fill="#283583"/>
<path d="M142.539 37.3267L156.844 0H28.3009L0 74H128.501L142.553 37.3267H142.539Z" fill="#CD1719"/>
</g>
<defs>
<clipPath id="clip0_721_9028">
<rect width="468" height="74" fill="white"/>
</clipPath>
</defs>
</svg>
